<?xml version="1.0" standalone="no"?>
<!DOCTYPE svg PUBLIC "-//W3C//DTD SVG 20010904//EN"
 "http://www.w3.org/TR/2001/REC-SVG-20010904/DTD/svg10.dtd">
<svg version="1.0" xmlns="http://www.w3.org/2000/svg"
 width="609.000000pt" height="609.000000pt" viewBox="0 0 609.000000 609.000000"
 preserveAspectRatio="xMidYMid meet">
<metadata>
Created by potrace 1.16, written by Peter Selinger 2001-2019
</metadata>
<g transform="translate(0.000000,609.000000) scale(0.100000,-0.100000)"
fill="#13a4ec" stroke="none">
<path d="M3351 5070 c-44 -10 -60 -47 -73 -165 -6 -60 -14 -112 -17 -115 -3
-3 -6 -27 -6 -55 -1 -27 -11 -126 -23 -220 -12 -93 -28 -218 -36 -276 -7 -59
-17 -112 -20 -118 -4 -6 -4 -10 1 -9 14 5 130 -71 137 -89 4 -10 10 -13 16 -7
12 12 33 188 25 216 -4 14 -3 18 2 11 11 -16 47 257 38 288 -4 15 -3 19 2 12
9 -13 63 384 63 458 0 54 -47 84 -109 69z"/>
<path d="M3653 5015 c-109 -34 -120 -44 -128 -112 -4 -32 -11 -83 -16 -113
-13 -78 -89 -646 -89 -665 0 -20 24 -19 41 1 20 24 139 81 205 98 32 8 92 18
133 22 65 6 76 5 88 -11 7 -11 13 -13 13 -7 0 7 5 12 11 12 5 0 7 -4 4 -10 -3
-5 -2 -10 4 -10 5 0 11 4 13 10 4 12 118 -19 118 -32 0 -5 4 -7 9 -4 4 3 35
-7 67 -23 216 -104 402 -134 592 -95 92 18 227 78 216 95 -4 8 -3 9 5 5 14 -9
64 21 57 33 -5 7 -84 17 -188 24 -14 1 -24 5 -22 9 6 9 -56 29 -70 21 -6 -3
-8 -3 -4 2 4 4 -6 18 -23 31 l-31 23 37 15 c21 9 41 16 45 16 23 0 193 126
246 181 67 70 171 224 171 252 0 21 1 21 -47 -3 -27 -14 -40 -16 -40 -8 0 7
-5 6 -12 -4 -12 -14 -141 -52 -164 -47 -5 1 -20 1 -34 0 -21 -1 -22 -3 -10
-12 12 -8 9 -9 -10 -4 -14 3 -61 10 -105 16 -51 6 -84 15 -91 25 -7 8 -13 11
-15 5 -9 -26 -174 47 -315 139 -173 113 -292 150 -473 149 -92 0 -131 -5 -188
-24z"/>
<path d="M2905 4060 c4 -7 -3 -8 -21 -4 -19 5 -25 4 -20 -5 6 -8 1 -10 -16 -6
-43 11 -186 -90 -219 -153 -8 -15 -22 -36 -31 -46 -53 -59 -72 -273 -34 -384
40 -118 137 -224 245 -268 40 -17 49 -24 31 -24 -33 0 -161 -36 -169 -47 -3
-4 -15 -8 -26 -8 -42 0 -178 -87 -260 -167 -96 -91 -151 -171 -194 -278 -30
-77 -77 -278 -66 -288 16 -16 642 55 900 103 86 15 132 20 136 13 4 -7 8 -6
11 2 4 13 224 64 244 56 7 -3 14 -1 16 3 2 5 55 23 118 41 202 55 220 61 220
73 0 7 -22 49 -49 95 -61 102 -148 205 -168 198 -8 -3 -12 -2 -9 3 8 13 -31
44 -45 35 -7 -4 -10 -3 -6 3 12 19 -163 119 -190 109 -8 -3 -11 -2 -8 3 7 12
-102 44 -132 38 -12 -2 -20 0 -17 4 3 5 -10 9 -28 10 -33 0 -33 0 14 19 112
46 201 130 251 238 27 59 31 80 35 174 6 142 -17 212 -101 321 -28 36 -126
107 -147 107 -6 0 -10 8 -11 18 0 9 -3 12 -5 6 -4 -9 -17 -8 -51 2 -55 17
-207 19 -198 4z"/>
<path d="M5886 3754 c-32 -29 -63 -51 -67 -48 -5 3 -9 -1 -10 -8 0 -7 -23 -31
-52 -53 -184 -142 -234 -179 -334 -248 -71 -48 -113 -72 -116 -64 -4 8 -6 6
-6 -3 -1 -14 -148 -111 -293 -195 -27 -15 -48 -30 -48 -34 0 -4 -6 -8 -12 -9
-39 -3 -54 -8 -61 -19 -4 -7 -14 -13 -22 -13 -7 0 -15 -4 -17 -9 -1 -5 -77
-47 -168 -94 -169 -87 -351 -168 -567 -253 -67 -26 -120 -51 -116 -57 3 -5 -4
-6 -17 -2 -17 5 -21 4 -15 -6 6 -9 4 -11 -8 -6 -8 3 -71 -12 -139 -34 -159
-52 -258 -79 -258 -72 0 3 -6 1 -12 -5 -12 -9 -65 -24 -98 -27 -9 0 -20 -4
-25 -7 -17 -10 -233 -56 -415 -88 -231 -40 -220 -39 -220 -26 0 6 -5 4 -10 -4
-8 -12 -12 -13 -19 -2 -7 11 -9 11 -14 -1 -4 -10 -29 -17 -86 -22 -53 -5 -79
-11 -74 -18 4 -7 0 -8 -12 -4 -25 10 -332 -15 -309 -25 11 -4 -1 -5 -26 -2
-89 11 -786 -48 -776 -65 2 -3 -26 -7 -63 -9 -36 -2 -82 -4 -101 -5 -19 -1
-37 -4 -40 -8 -11 -12 -155 -36 -161 -27 -4 6 -8 6 -11 -2 -2 -7 -55 -27 -118
-45 -63 -18 -156 -49 -206 -67 -82 -31 -92 -33 -103 -19 -11 14 -11 14 -7 -2
5 -15 -11 -26 -87 -61 -50 -24 -126 -64 -169 -89 -42 -25 -79 -43 -82 -40 -3
4 -6 1 -6 -5 0 -5 -17 -21 -37 -33 -21 -13 -56 -38 -79 -56 -23 -18 -46 -33
-53 -33 -6 0 -11 -7 -11 -15 0 -21 9 -20 130 19 205 67 329 95 605 138 135 21
182 23 475 22 322 0 476 -11 490 -34 6 -10 8 -10 12 0 3 9 41 7 158 -10 292
-40 759 -131 770 -150 5 -8 9 -9 11 -1 4 11 221 -27 227 -41 2 -4 9 -5 15 -2
7 2 73 -4 147 -15 74 -11 169 -23 210 -27 104 -9 101 -9 111 -25 6 -10 9 -10
9 -1 0 17 306 17 313 0 4 -10 8 -10 14 -1 4 6 60 16 123 22 544 54 976 283
1248 661 34 47 68 93 77 103 8 9 15 23 15 31 0 8 4 17 10 21 5 3 6 13 3 22 -4
10 -2 14 4 10 13 -8 27 23 15 35 -4 4 -26 -8 -48 -28 -21 -20 -39 -35 -40 -33
-1 8 -174 -94 -174 -103 0 -5 -4 -7 -8 -4 -5 3 -36 -8 -70 -24 -33 -17 -67
-31 -74 -32 -7 -2 -15 -6 -18 -9 -9 -10 -154 -67 -253 -98 -98 -31 -266 -73
-345 -86 -23 -4 -40 -10 -38 -14 3 -4 -12 -7 -32 -7 -55 0 -159 -11 -170 -18
-5 -3 -57 -8 -115 -12 -67 -4 -104 -11 -100 -17 4 -6 -4 -7 -21 -3 -16 4 -93
7 -171 7 -139 -1 -201 12 -113 23 178 20 314 31 316 24 2 -4 9 -8 14 -8 6 0 8
3 4 7 -4 4 73 23 171 43 98 20 188 40 201 44 15 5 22 3 22 -6 0 -8 4 -6 11 5
5 9 19 17 29 17 10 0 86 22 167 49 572 190 903 467 1216 1021 116 205 241 469
239 502 0 10 5 15 12 12 14 -6 30 46 18 58 -4 3 -33 -18 -66 -48z"/>
<path d="M1982 3669 c-29 -4 -77 -19 -107 -34 -58 -28 -145 -107 -145 -131 0
-8 -4 -14 -9 -14 -5 0 -19 -24 -32 -52 -19 -45 -23 -71 -25 -168 0 -63 1 -109
3 -102 3 7 17 -13 33 -45 32 -68 92 -133 152 -165 l43 -22 -55 -7 c-30 -4 -68
-13 -83 -18 -16 -6 -32 -9 -37 -6 -5 3 -10 1 -12 -4 -1 -4 -27 -20 -56 -35
-29 -15 -55 -33 -59 -41 -3 -8 -9 -13 -13 -10 -15 9 -110 -87 -159 -161 -27
-41 -58 -101 -69 -132 -31 -89 -52 -163 -52 -184 0 -10 -4 -17 -9 -14 -5 4 -7
-3 -4 -14 7 -25 8 -25 151 0 165 28 276 39 281 27 2 -6 6 -5 10 1 3 6 73 15
155 21 83 6 151 13 153 15 3 2 5 35 6 74 1 38 5 68 8 67 9 -6 31 114 23 127
-4 6 -3 8 4 4 6 -3 15 9 22 31 15 46 78 157 114 198 34 39 33 48 -3 43 -17 -2
-28 -1 -25 4 3 4 -1 8 -8 8 -7 0 10 11 37 24 121 57 203 179 213 317 3 41 1
70 -4 66 -5 -3 -9 12 -9 32 -1 43 -42 132 -82 177 -45 49 -113 93 -167 108
-78 21 -118 27 -111 16 3 -6 2 -10 -4 -10 -5 0 -11 3 -13 8 -1 4 -27 4 -56 1z"/>
<path d="M3925 3671 c1 -3 -22 -6 -53 -6 -45 -1 -70 -8 -120 -35 -58 -30 -152
-119 -152 -142 0 -5 -6 -6 -12 -2 -7 4 -10 4 -6 -1 4 -4 1 -23 -7 -41 -57
-136 -26 -308 74 -417 22 -24 59 -52 81 -62 21 -10 37 -21 35 -25 -3 -5 4 -6
15 -3 12 3 20 0 20 -7 0 -8 -12 -11 -35 -8 -33 4 -35 2 -35 -24 0 -16 6 -28
13 -28 19 0 78 -96 71 -117 -4 -12 -3 -14 3 -5 7 9 14 2 26 -23 9 -19 21 -35
26 -35 13 0 245 88 357 135 50 21 91 44 91 51 0 12 -152 54 -193 54 -25 0 -15
17 25 43 126 84 189 233 162 382 -32 173 -156 293 -323 313 -37 5 -65 6 -63 3z"/>
</g>
</svg>
