<?xml version="1.0" standalone="no"?>
<!DOCTYPE svg PUBLIC "-//W3C//DTD SVG 20010904//EN"
 "http://www.w3.org/TR/2001/REC-SVG-20010904/DTD/svg10.dtd">
<svg version="1.0" xmlns="http://www.w3.org/2000/svg"
 width="1024.000000pt" height="1024.000000pt" viewBox="0 0 1024.000000 1024.000000"
 preserveAspectRatio="xMidYMid meet">

<g transform="translate(0.000000,1024.000000) scale(0.100000,-0.100000)"
fill="#13a4ec" stroke="none">
<path d="M5619 8477 c-19 -12 -39 -34 -46 -48 -9 -19 -194 -1445 -193 -1486 0
-4 28 -24 61 -43 33 -18 77 -49 99 -67 l38 -33 6 27 c3 16 22 150 41 298 19
149 49 371 65 495 96 725 100 764 89 804 -20 72 -95 97 -160 53z"/>
<path d="M6345 8443 c-144 -18 -369 -96 -379 -132 -3 -9 -21 -137 -41 -286
-20 -148 -44 -335 -55 -415 -11 -80 -33 -248 -50 -375 -17 -126 -33 -242 -36
-257 -5 -27 -5 -27 62 17 191 126 480 194 703 167 142 -18 219 -42 408 -127
335 -151 559 -199 818 -176 184 17 336 64 483 149 l84 49 -78 7 c-118 9 -198
32 -319 91 -115 56 -170 95 -164 114 3 7 38 24 79 37 148 50 306 146 433 263
92 84 231 264 311 402 l26 46 -84 -34 c-298 -119 -597 -121 -913 -4 -117 43
-189 81 -358 189 -263 169 -417 236 -614 268 -79 13 -243 17 -316 7z"/>
<path d="M4875 6805 c-225 -51 -402 -191 -507 -400 -14 -27 -36 -90 -48 -139
-19 -77 -22 -108 -17 -210 6 -141 22 -211 77 -321 48 -98 123 -190 204 -252
64 -49 198 -116 254 -128 43 -9 40 -39 -3 -43 -17 -2 -81 -14 -143 -28 -272
-60 -509 -189 -697 -378 -153 -154 -248 -312 -320 -530 -33 -102 -84 -340 -75
-350 7 -6 423 30 675 59 690 80 1298 197 1845 357 96 28 177 53 179 54 6 5
-78 153 -132 233 -151 225 -432 431 -707 519 -94 30 -216 59 -275 64 -49 5
-45 35 7 48 141 39 292 146 383 275 104 147 149 286 147 460 -3 333 -214 611
-527 698 -90 24 -241 31 -320 12z"/>
<path d="M9880 6253 c-564 -481 -1263 -943 -1975 -1303 -637 -321 -1177 -536
-1780 -708 -276 -79 -618 -163 -800 -196 -49 -9 -124 -23 -165 -31 -553 -104
-888 -142 -1945 -216 -867 -60 -1475 -178 -2005 -389 -285 -113 -497 -224
-747 -393 -153 -102 -177 -124 -101 -92 115 48 546 160 783 204 336 62 539 81
945 88 750 13 1161 -35 2445 -287 897 -176 1198 -214 1700 -213 260 0 337 3
478 21 647 85 1160 291 1567 630 98 83 231 215 317 317 82 97 212 279 233 327
16 34 36 68 49 81 6 6 11 16 11 21 -1 6 -9 1 -18 -10 -10 -12 -28 -25 -40 -28
-24 -8 -29 -21 -9 -30 6 -3 2 -3 -11 0 -15 4 -45 -9 -100 -42 -104 -63 -316
-173 -432 -224 -52 -23 -110 -48 -128 -57 -42 -18 -233 -89 -275 -102 -18 -5
-77 -23 -132 -41 -689 -216 -1612 -294 -2369 -200 -99 12 -106 15 -106 36 0
12 9 13 48 8 66 -8 522 13 770 36 1002 94 1839 356 2381 746 110 78 100 70
216 167 338 282 667 726 968 1307 99 191 301 620 295 625 -2 2 -33 -21 -68
-52z"/>
<path d="M3370 6139 c-115 -11 -227 -54 -315 -123 -81 -62 -145 -145 -183
-237 -43 -104 -56 -182 -49 -297 12 -227 136 -405 355 -510 39 -19 72 -39 72
-46 0 -7 -42 -19 -107 -29 -146 -25 -231 -51 -337 -104 -113 -57 -183 -108
-271 -198 -149 -152 -251 -352 -306 -599 -11 -50 -22 -99 -25 -110 -4 -11 -2
-16 4 -12 46 28 862 125 1058 126 34 0 75 3 91 6 30 6 31 7 43 97 35 265 126
516 249 686 25 36 49 70 54 77 5 9 -13 16 -68 25 -101 16 -102 35 -1 67 122
39 249 138 321 252 69 110 104 270 85 393 -53 344 -332 567 -670 536z"/>
<path d="M6435 6121 c-157 -45 -311 -172 -378 -311 -87 -182 -90 -369 -8 -545
68 -146 210 -266 367 -311 83 -24 82 -44 -1 -61 -33 -7 -70 -15 -82 -18 -21
-5 -19 -10 34 -83 30 -42 73 -113 95 -157 22 -44 42 -81 43 -83 5 -5 341 122
532 201 95 40 169 75 165 78 -14 13 -184 49 -279 60 -100 11 -143 22 -143 36
1 5 45 29 100 55 219 105 340 298 340 542 0 113 -21 200 -72 297 -82 155 -219
260 -403 308 -63 17 -241 12 -310 -8z"/>
</g>
</svg>
